<?xml version="1.0" encoding="utf-8"?>
<!-- Uploaded to: SVG Repo, www.svgrepo.com, Generator: SVG Repo Mixer Tools -->
<svg width="800px" height="800px" viewBox="0 0 1024 1024" class="icon"  version="1.1" xmlns="http://www.w3.org/2000/svg"><path d="M832 856s-120 88-320 88-320-88-320-88 114.4-202.32 173.44-365.68c7.36-20.24 13.92-40 19.2-58.56A337.68 337.68 0 0 0 400 344c0-96-56-200-56-200 32-80 104-88 168-32 64-56 136-48 168 32 0 0-56 104-56 200a337.68 337.68 0 0 0 15.36 88c5.28 18.64 11.84 38.32 19.2 58.56C717.6 653.68 832 856 832 856z" fill="#3DBADA" /><path d="M658.56 490.32a506.24 506.24 0 0 1-293.12 0c7.36-20.24 13.92-40 19.2-58.56A502.72 502.72 0 0 0 512 448a502.72 502.72 0 0 0 127.36-16c5.28 18.4 11.84 38.08 19.2 58.32z" fill="#FFFFFF" /></svg>